<?xml version="1.0" encoding="utf-8"?>
<!-- Generator: Adobe Illustrator 21.0.0, SVG Export Plug-In . SVG Version: 6.00 Build 0)  -->
<svg version="1.1" id="Layer_1" xmlns="http://www.w3.org/2000/svg" xmlns:xlink="http://www.w3.org/1999/xlink" x="0px" y="0px"
	 viewBox="0 0 638 70" style="enable-background:new 0 0 638 70;" xml:space="preserve">
<style type="text/css">
	.st0{fill:#5A168E;}
	.st1{fill:#FFFFFF;}
	.st2{fill:#E4394D;}
	.st3{fill:#0E336E;}
</style>
<g>
	<path class="st0" d="M218.2,535.7c-1.2-1.6-2.8-2.9-4.5-3.8c-1.8-1-3.7-1.4-5.9-1.4h-6.4c-2.2,0-4.1,0.5-5.9,1.4
		c-1.8,1-3.3,2.2-4.5,3.8c-1.2,1.6-2.2,3.3-2.9,5.3c-0.7,2-1,4-1,6.1v0.7c0,1.9,0.3,3.9,1,5.8c0.7,2,1.6,3.7,2.9,5.3
		c1.2,1.6,2.8,2.9,4.5,3.9c1.8,1,3.7,1.5,5.9,1.5h6.4c2.2,0,4.1-0.5,5.9-1.5c1.8-1,3.3-2.3,4.5-3.9c1.2-1.6,2.2-3.4,2.9-5.3
		c0.7-2,1-3.9,1-5.8v-0.7c0-2-0.3-4.1-1-6C220.5,539.1,219.5,537.3,218.2,535.7 M214.4,548.9c0,1.2-0.2,2.3-0.7,3.4
		c-0.5,1-1.1,1.9-1.8,2.7c-0.8,0.8-1.6,1.4-2.6,1.8c-1,0.4-2,0.7-3,0.7H203c-1,0-2-0.2-2.9-0.7c-1-0.4-1.9-1-2.6-1.8
		s-1.4-1.7-1.8-2.7c-0.5-1-0.7-2.2-0.7-3.4v-3c0-1.2,0.2-2.3,0.7-3.4c0.5-1,1.1-1.9,1.8-2.7c0.8-0.8,1.6-1.3,2.6-1.8
		c1-0.4,2-0.6,3-0.6h3.3c1,0,2,0.2,3,0.6c1,0.4,1.8,1,2.6,1.8c0.8,0.8,1.4,1.7,1.8,2.7c0.5,1,0.7,2.2,0.7,3.4V548.9z"/>
	<path class="st0" d="M255.6,535.8c-1.2-1.6-2.8-2.9-4.5-3.9c-1.8-1-3.8-1.5-6-1.5h-19.8c-0.1,0-0.3,0.1-0.5,0.3
		c-0.2,0.2-0.3,0.4-0.3,0.6v32c0,0.2,0.1,0.4,0.2,0.6c0.1,0.2,0.3,0.3,0.5,0.3h4.5h11.1h4.3c2.2,0,4.2-0.5,6-1.5
		c1.8-1,3.3-2.3,4.5-3.9c1.2-1.6,2.2-3.4,2.9-5.3c0.7-2,1-3.9,1-5.8V547c0-1.9-0.3-3.9-1-5.8C257.8,539.1,256.9,537.4,255.6,535.8
		 M251.8,547.9c0,1.2-0.3,2.4-0.7,3.5c-0.5,1.2-1.2,2.2-2,3.1c-0.8,0.9-1.7,1.6-2.7,2.1c-1,0.5-1.9,0.8-2.9,0.8h-6.1c0,0,0,0,0,0
		h-4.9v-19.2c0-0.2,0.1-0.4,0.2-0.5c0.1-0.2,0.3-0.3,0.5-0.3h10.3c1,0,2,0.3,3,0.8c1,0.5,1.9,1.2,2.7,2.1c0.8,0.9,1.4,1.9,1.9,3
		c0.5,1.1,0.7,2.3,0.7,3.5V547.9z"/>
	<path class="st0" d="M296,530.4h-6.4c-0.2,0-0.4,0.1-0.5,0.3c-0.1,0.2-0.2,0.4-0.2,0.7v16.5c0,1.2-0.2,2.4-0.7,3.5
		c-0.5,1.2-1.1,2.2-1.9,3.1c-0.8,0.9-1.7,1.6-2.6,2.1c-1,0.5-2,0.8-3,0.8H278c-1,0-2-0.3-3-0.8c-1-0.5-1.9-1.2-2.6-2.1
		c-0.8-0.9-1.4-1.9-1.9-3.1c-0.5-1.2-0.7-2.3-0.7-3.5v-16.5c0-0.2-0.1-0.4-0.2-0.7c-0.1-0.2-0.3-0.3-0.5-0.3h-6.4
		c-0.2,0-0.4,0.1-0.5,0.3c-0.1,0.2-0.2,0.4-0.2,0.6v16.5c0,1.9,0.3,3.9,1,5.8c0.7,2,1.7,3.7,2.9,5.3c1.3,1.6,2.8,2.9,4.5,3.9
		c1.8,1,3.7,1.5,5.9,1.5h5.9c2.2,0,4.1-0.5,5.9-1.5c1.8-1,3.3-2.3,4.5-3.9c1.3-1.6,2.2-3.4,2.9-5.3c0.7-2,1-3.9,1-5.8v-16.5
		c0-0.2-0.1-0.4-0.2-0.6C296.3,530.5,296.2,530.4,296,530.4"/>
	<path class="st0" d="M307.7,539.3c0.2-0.3,0.5-0.7,0.9-0.9c0.4-0.3,1.1-0.5,1.9-0.7c0.8-0.2,1.9-0.3,3.2-0.3h19.1
		c0.2,0,0.4-0.1,0.7-0.2c0.2-0.1,0.4-0.3,0.4-0.5v-5.6c0-0.2-0.1-0.3-0.4-0.5c-0.2-0.2-0.5-0.2-0.7-0.2h-20.7
		c-4.2,0-7.4,0.7-9.7,2.2c-2.2,1.5-3.3,4-3.3,7.5v1.5c0,3,1.2,5.2,3.5,6.8c2.3,1.6,5.5,2.4,9.6,2.4h8.3c1.1,0.1,2,0.2,2.7,0.4
		c0.7,0.2,1.2,0.5,1.5,0.8c0.3,0.3,0.6,0.6,0.7,1c0.1,0.3,0.2,0.7,0.2,1v0.4c0,0.3-0.1,0.7-0.2,1c-0.2,0.3-0.5,0.7-0.9,0.9
		c-0.5,0.3-1.1,0.5-1.9,0.7c-0.8,0.2-1.9,0.3-3.2,0.3h-19.1c-0.2,0-0.4,0.1-0.7,0.2c-0.2,0.1-0.4,0.3-0.4,0.5v5.6
		c0,0.1,0.1,0.3,0.4,0.4c0.2,0.2,0.5,0.3,0.7,0.3h20.7c4,0,7.2-0.7,9.5-2.2c2.3-1.5,3.4-4,3.4-7.5v-1.5c0-3-1.1-5.3-3.4-6.8
		c-2.3-1.6-5.5-2.4-9.6-2.4h-8.3c-1.1-0.1-2-0.2-2.7-0.5c-0.7-0.2-1.2-0.5-1.6-0.8c-0.4-0.3-0.6-0.6-0.7-1c-0.1-0.4-0.2-0.7-0.2-1
		v-0.4C307.5,540,307.5,539.6,307.7,539.3"/>
	<path class="st0" d="M184.5,532.6c-0.2-1.8-1.7-2.3-2.4-2.3h-6.8c-0.9,0.1-1.2,0.8-1.2,0.8l0,0.1c0,0.4,1,1.3,1.7,2.1
		c0.1,0.1,0.7,0.9,1,1.7c2.3,7.3-3.8,14.7-6.8,17.8l-9.2-20.4c-0.8-1.8-2.4-2-3-2.1l-7.9,0l2.4,4.8l0,0c3.5,6.4,12.4,27.6,12.5,27.8
		c0.4,1.1,1.5,1.4,2.1,1.4l1.3,0l0.1,0c1.2-0.2,1.9-0.8,2.1-1.1C187.2,547.2,184.7,533.8,184.5,532.6"/>
</g>
<g>
	<path class="st1" d="M117.5,7.8h20.4c14.9,0,24.7,9.8,24.7,25c0,14.9-9.5,26.3-25.2,26.3h-19.9V7.8z M128.6,50.2h8.3
		c9.8,0,14.2-7.4,14.2-17.3c0-8.4-4.1-16.1-14.1-16.1h-8.4V50.2z"/>
	<path class="st1" d="M182.6,7.8v30.5c0,9.9,5.1,12.8,10.6,12.8c6.3,0,10.3-3.4,10.3-12.8V7.8h11.2v30c0,17.6-10.3,22-21.6,22
		c-11.6,0-21.6-4.7-21.6-21.8V7.8H182.6z"/>
	<path class="st1" d="M233.3,44.1c1.2,5.1,4.8,7.4,10.8,7.4c6,0,8.5-2.4,8.5-6.1c0-4.2-2.5-6-11.2-8c-14-3.3-17.4-8.4-17.4-15.3
		c0-8.9,6.7-14.9,18.8-14.9c13.6,0,19,7.3,19.8,14.8h-11.2c-0.6-3.2-2.3-6.6-8.9-6.6c-4.5,0-7.2,1.9-7.2,5.5c0,3.6,2.2,5.1,10.5,6.9
		c14.9,3.6,18.1,9.1,18.1,16.4c0,9.3-7.1,15.8-20.6,15.8c-13,0-19.9-6.4-21.1-15.8H233.3z"/>
	<g>
		<path class="st1" d="M54.4,12.6c-0.5-2.2-3.1-3.1-3.7-3.3L42,9.4c-0.8,0-1.8,0.2-2.1,0.4c0.1,0,0.2,0.5,1.4,1.6
			c2.8,2.6,4.2,5.7,4.2,9.3C45.5,31,34.2,41.6,33.7,42l-1.3,1.2l-0.7-1.6c0,0-10.2-22.6-12.6-27.9c-2-4.5-2.5-4.5-3.8-4.4
			c-2.6,0.1-9.2,0-11.4,0C4.1,9.4,4.2,9.7,4.4,10C16.6,32.6,21.1,45,23.4,51.7c1.9,5.5,2.5,6.8,4.4,7.4c4.5,1.5,14.8-9.2,21.9-23
			C56.7,22.6,55.1,15.3,54.4,12.6z"/>
	</g>
	<path class="st1" d="M96.2,45.4c-3.6,4-8.7,6.2-14,6.2c-10.4,0-18.8-8.5-18.8-18.8c0-5.4,2.4-10.6,6.4-14.2L68,16.4
		c-5.7,4.1-9.2,10.8-9.2,17.8c0,12.1,9.8,21.9,21.9,21.9c6.9,0,13.5-3.3,17.6-8.9L96.2,45.4z"/>
	<path class="st1" d="M83.8,8.1c-4.6,0-9.2,1.2-13.2,3.5l0.6,1.3c2.9-1.2,6.1-1.8,9.3-1.8c13.4,0,24.3,10.9,24.3,24.3
		S93.8,59.6,80.4,59.6c-2.3,0-4.5-0.3-6.7-0.9L73.2,60c3.3,1.4,6.9,2.1,10.5,2.1c14.9,0,27-12.1,27-27C110.8,20.2,98.6,8.1,83.8,8.1
		z"/>
</g>
<g>
	<path class="st0" d="M281.3-132.7c-1-1.3-2.2-2.3-3.6-3c-1.4-0.8-2.9-1.1-4.6-1.1h-5c-1.7,0-3.3,0.4-4.6,1.1
		c-1.4,0.8-2.6,1.8-3.6,3c-1,1.2-1.7,2.6-2.3,4.2c-0.5,1.6-0.8,3.2-0.8,4.8v0.5c0,1.5,0.3,3.1,0.8,4.6c0.5,1.6,1.3,3,2.3,4.2
		c1,1.3,2.2,2.3,3.6,3.1c1.4,0.8,2.9,1.2,4.6,1.2h5c1.7,0,3.3-0.4,4.6-1.2c1.4-0.8,2.6-1.8,3.6-3.1c1-1.3,1.7-2.7,2.3-4.2
		c0.5-1.6,0.8-3.1,0.8-4.6v-0.5c0-1.6-0.3-3.2-0.8-4.8C283.1-130,282.3-131.4,281.3-132.7 M278.3-122.2c0,1-0.2,1.8-0.6,2.7
		c-0.4,0.8-0.9,1.5-1.5,2.1c-0.6,0.6-1.3,1.1-2,1.4c-0.8,0.3-1.5,0.5-2.4,0.5h-2.6c-0.8,0-1.6-0.2-2.3-0.5c-0.8-0.3-1.5-0.8-2.1-1.4
		s-1.1-1.3-1.5-2.1c-0.4-0.8-0.6-1.7-0.6-2.7v-2.4c0-1,0.2-1.8,0.6-2.7c0.4-0.8,0.9-1.5,1.5-2.1c0.6-0.6,1.3-1.1,2-1.4
		c0.8-0.3,1.5-0.5,2.4-0.5h2.6c0.8,0,1.6,0.2,2.4,0.5c0.8,0.3,1.4,0.8,2,1.4c0.6,0.6,1.1,1.3,1.5,2.1c0.4,0.8,0.6,1.7,0.6,2.7
		V-122.2z"/>
	<path class="st0" d="M310.9-132.6c-1-1.2-2.2-2.3-3.6-3.1c-1.4-0.8-3-1.2-4.7-1.2H287c-0.1,0-0.2,0.1-0.4,0.3
		c-0.2,0.2-0.2,0.3-0.2,0.5v25.3c0,0.1,0.1,0.3,0.2,0.5c0.1,0.2,0.2,0.3,0.4,0.3h3.6h8.8h3.4c1.7,0,3.3-0.4,4.7-1.2
		c1.4-0.8,2.6-1.8,3.6-3.1c1-1.3,1.7-2.7,2.3-4.2c0.5-1.6,0.8-3.1,0.8-4.6v-0.7c0-1.5-0.3-3.1-0.8-4.6
		C312.7-130,311.9-131.4,310.9-132.6 M307.8-123.1c0,1-0.2,1.9-0.6,2.8c-0.4,0.9-0.9,1.7-1.5,2.4c-0.6,0.7-1.3,1.3-2.1,1.7
		c-0.8,0.4-1.5,0.6-2.3,0.6h-4.8c0,0,0,0,0,0h-3.9v-15.2c0-0.1,0.1-0.3,0.2-0.4c0.1-0.1,0.2-0.2,0.4-0.2h8.2c0.8,0,1.6,0.2,2.4,0.6
		c0.8,0.4,1.5,1,2.1,1.7c0.6,0.7,1.1,1.5,1.5,2.4c0.4,0.9,0.6,1.8,0.6,2.8V-123.1z"/>
	<path class="st0" d="M342.8-136.8h-5c-0.2,0-0.3,0.1-0.4,0.2c-0.1,0.2-0.2,0.3-0.2,0.5v13c0,1-0.2,1.9-0.6,2.8
		c-0.4,0.9-0.9,1.7-1.5,2.4c-0.6,0.7-1.3,1.3-2.1,1.7c-0.8,0.4-1.6,0.6-2.4,0.6h-2.1c-0.8,0-1.6-0.2-2.4-0.6c-0.8-0.4-1.5-1-2.1-1.7
		c-0.6-0.7-1.1-1.5-1.5-2.4c-0.4-0.9-0.6-1.8-0.6-2.8v-13c0-0.2-0.1-0.4-0.2-0.5c-0.1-0.2-0.2-0.2-0.4-0.2h-5
		c-0.2,0-0.3,0.1-0.4,0.2c-0.1,0.2-0.2,0.3-0.2,0.5v13c0,1.5,0.3,3.1,0.8,4.6c0.5,1.6,1.3,3,2.3,4.2c1,1.3,2.2,2.3,3.6,3.1
		c1.4,0.8,3,1.2,4.7,1.2h4.7c1.7,0,3.3-0.4,4.7-1.2c1.4-0.8,2.6-1.8,3.6-3.1c1-1.3,1.8-2.7,2.3-4.2c0.5-1.6,0.8-3.1,0.8-4.6v-13
		c0-0.1-0.1-0.3-0.2-0.5C343.1-136.8,343-136.8,342.8-136.8"/>
	<path class="st0" d="M352.1-129.8c0.1-0.3,0.4-0.5,0.7-0.7c0.4-0.2,0.9-0.4,1.5-0.5c0.6-0.1,1.5-0.2,2.5-0.2h15.1
		c0.2,0,0.3-0.1,0.5-0.2c0.2-0.1,0.3-0.2,0.3-0.4v-4.4c0-0.1-0.1-0.2-0.3-0.4c-0.2-0.1-0.4-0.2-0.5-0.2h-16.4
		c-3.3,0-5.9,0.6-7.6,1.7c-1.8,1.2-2.6,3.1-2.6,5.9v1.2c0,2.3,0.9,4.1,2.7,5.4c1.8,1.3,4.4,1.9,7.6,1.9h6.5c0.9,0.1,1.6,0.2,2.1,0.3
		c0.5,0.2,0.9,0.4,1.2,0.6c0.3,0.2,0.5,0.5,0.6,0.8c0.1,0.3,0.1,0.5,0.1,0.8v0.3c0,0.3-0.1,0.5-0.2,0.8c-0.1,0.3-0.4,0.5-0.7,0.7
		c-0.4,0.2-0.9,0.4-1.5,0.5c-0.6,0.1-1.5,0.2-2.5,0.2h-15.1c-0.2,0-0.3,0.1-0.5,0.2c-0.2,0.1-0.3,0.2-0.3,0.4v4.4
		c0,0.1,0.1,0.2,0.3,0.3c0.2,0.1,0.4,0.2,0.5,0.2h16.4c3.2,0,5.7-0.6,7.5-1.8c1.8-1.2,2.7-3.2,2.7-5.9v-1.2c0-2.4-0.9-4.2-2.7-5.4
		c-1.8-1.2-4.3-1.9-7.6-1.9H356c-0.9-0.1-1.6-0.2-2.1-0.4c-0.5-0.2-0.9-0.4-1.2-0.6c-0.3-0.2-0.5-0.5-0.6-0.8
		c-0.1-0.3-0.1-0.5-0.1-0.8v-0.3C351.9-129.3,351.9-129.6,352.1-129.8"/>
	<path class="st0" d="M254.6-135.1c-0.2-1.4-1.3-1.8-1.9-1.8h-5.4c-0.7,0.1-0.9,0.6-0.9,0.6l0,0.1c0,0.4,0.8,1,1.3,1.7
		c0.1,0.1,0.6,0.7,0.8,1.3c1.9,5.8-3,11.6-5.4,14.1l-7.3-16.1c-0.6-1.4-1.9-1.6-2.4-1.7l-6.3,0l1.9,3.8l0,0c2.7,5,9.8,21.8,9.9,21.9
		c0.3,0.8,1.2,1.1,1.6,1.1l1,0l0.1,0c0.9-0.2,1.5-0.7,1.6-0.8C256.8-123.6,254.8-134.2,254.6-135.1"/>
</g>
<path class="st2" d="M299-97.8c-51.8,0-93.7-13.3-93.7-29.7c0-8.1,10.3-15.4,26.9-20.8c-19.1,5.4-31.2,13.3-31.2,22.1
	c0,16.4,42,29.7,93.7,29.7c26.2,0,49.8-3.4,66.8-8.9C345-100.7,323.1-97.8,299-97.8"/>
<path class="st3" d="M300.2-154.6c-20.5,0-39.8,1.3-56.8,3.6c12.3-1.1,25.5-1.7,39.3-1.7c64.6,0,117,13.3,117,29.8
	c0,16.5-52.4,29.8-117,29.8c-3.7,0-7.3,0-10.9-0.1c9.1,0.6,18.7,0.9,28.5,0.9c67.2,0,121.6-13.9,121.6-31.1
	C421.8-140.6,367.4-154.6,300.2-154.6"/>
<g>
	<path class="st1" d="M336.1,37.7c0-6.4,0.1-13,0.3-16.8h-0.2c-1.5,5.9-6.8,20.3-10.7,31.3h-4.6c-2.9-9.1-8.4-25.2-9.9-31.4h-0.2
		c0.3,4,0.4,11.7,0.4,17.7v13.7h-4.8v-35h7.8c3.7,10.6,8.2,24.1,9.4,28.6h0c0.9-3.6,6.2-18.4,10.1-28.6h7.5v35h-5.1V37.7z"/>
	<path class="st1" d="M379.8,36.1h-17.3v11.7h19l-0.7,4.4h-23.4v-35h23.2v4.4h-18.1v10.1h17.3V36.1z"/>
	<path class="st1" d="M399.9,37.1v15.2h-5.1v-35h14c7.2,0,11.1,4,11.1,9.4c0,4.6-2.6,7.3-5.8,8.3c2.6,0.7,5.1,2.8,5.1,8.9v1.5
		c0,2.4-0.1,5.4,0.5,6.9h-5c-0.6-1.5-0.6-4.2-0.6-7.6V44c0-4.8-1.3-6.9-7.5-6.9H399.9z M399.9,32.8h7.3c5.1,0,7.3-1.9,7.3-5.7
		c0-3.5-2.3-5.5-6.8-5.5h-7.8V32.8z"/>
	<path class="st1" d="M462.4,42.2c-1.5,6-6,10.5-14.1,10.5c-10.6,0-15.9-7.9-15.9-17.8c0-9.5,5.3-18.1,16.1-18.1
		c8.5,0,12.9,4.9,13.9,10.7h-5.2c-1.2-3.6-3.5-6.4-8.9-6.4c-7.5,0-10.4,6.7-10.4,13.7c0,6.7,2.8,13.7,10.6,13.7
		c5.3,0,7.5-3.1,8.7-6.2H462.4z"/>
	<path class="st1" d="M476.2,17.3h5.2v14.4h17.4V17.3h5.2v35h-5.2V36.1h-17.4v16.2h-5.2V17.3z"/>
	<path class="st1" d="M525.2,42.2l-3.5,10h-5.2l12.3-35h6.4l12.9,35h-5.5l-3.7-10H525.2z M537.7,37.8c-3.2-8.8-5-13.7-5.7-16.4h-0.1
		c-0.9,3-2.9,8.9-5.4,16.4H537.7z"/>
	<path class="st1" d="M560.5,52.2v-35h6.7c4.9,8.2,15.3,24.9,17.2,28.7h0.1c-0.4-4.3-0.3-9.9-0.3-15.7v-13h4.8v35h-6.3
		c-4.5-7.5-15.4-25.7-17.5-29.6h-0.1c0.3,3.8,0.3,10,0.3,16.3v13.3H560.5z"/>
	<path class="st1" d="M612.5,21.7h-11.2v-4.4h27.6v4.4h-11.2v30.6h-5.2V21.7z"/>
</g>
</svg>
